<?xml version="1.0" encoding="UTF-8"?>
<svg version="1.1" xmlns="http://www.w3.org/2000/svg" width="256" height="256">
<path d="M0 0 C1.45788629 -0.00807831 1.45788629 -0.00807831 2.94522482 -0.01631981 C6.20486839 -0.03063743 9.46410805 -0.02348616 12.72377014 -0.01637268 C15.05957364 -0.02207424 17.39537435 -0.02903766 19.73117065 -0.03717041 C26.07822251 -0.05514034 32.4251364 -0.05392621 38.77220607 -0.04822803 C44.73784869 -0.0447515 50.70347007 -0.05269437 56.6691081 -0.05958868 C69.20589656 -0.07331509 81.74262262 -0.06787505 94.27940965 -0.05640347 C105.7467184 -0.04647089 117.2138658 -0.05941185 128.68114965 -0.08333766 C140.45834296 -0.10772478 152.23546111 -0.1173375 164.01267916 -0.11068493 C170.62367611 -0.10731017 177.23453975 -0.10976504 183.84551811 -0.12693596 C190.06144541 -0.1423756 196.27706408 -0.13848237 202.49297905 -0.11963081 C204.77545614 -0.11593673 207.05795594 -0.11907711 209.34041214 -0.1295166 C212.45410629 -0.14267168 215.56677045 -0.13122693 218.68041992 -0.11352539 C219.58557797 -0.1231304 220.49073602 -0.1327354 221.42332309 -0.14263147 C226.88424306 -0.07866876 230.15305499 0.6290604 234.40370178 4.38768005 C237.36640951 8.1564167 237.78100044 10.98317921 237.79138184 15.71908569 C237.80623878 17.63481636 237.80623878 17.63481636 237.82139587 19.58924866 C237.8171581 20.99723912 237.81260026 22.40522866 237.80775452 23.81321716 C237.81345918 25.30174268 237.82042382 26.79026382 237.82855225 28.27877808 C237.84648844 32.31600932 237.84531443 36.35302327 237.83960986 40.39028239 C237.83651862 43.76257407 237.84260975 47.13482397 237.84864861 50.5071097 C237.86269378 58.46367308 237.86113267 66.42012909 237.8497467 74.37669373 C237.83826559 82.58096373 237.85234093 90.78490685 237.87914318 98.98913378 C237.90130526 106.03727644 237.90793642 113.08531654 237.90206677 120.13349158 C237.89869717 124.34118926 237.90111232 128.54867741 237.91831779 132.75634575 C237.93379304 136.71355867 237.92982535 140.67028762 237.91101265 144.62748146 C237.90732831 146.07787865 237.91043081 147.52831174 237.92089844 148.97867584 C237.93411842 150.96217726 237.92014651 152.94580384 237.90490723 154.92929077 C237.90469794 156.03816619 237.90448866 157.14704161 237.90427303 158.28951931 C237.14012324 163.01903364 234.82910764 166.18876407 231.19979858 169.24139404 C227.35675327 170.81688638 223.75025513 170.78235632 219.66615295 170.72825623 C218.79735504 170.72869431 217.92855713 170.72913239 217.03343201 170.72958374 C214.17094703 170.72749907 211.30905279 170.70418318 208.44667053 170.6806488 C206.45841797 170.67505171 204.47016126 170.67078214 202.48190308 170.66778564 C197.25560531 170.65634586 192.0295587 170.626886 186.80335999 170.59367371 C181.46770119 170.56295423 176.1320017 170.54927629 170.79627991 170.53416443 C160.33197701 170.50201558 149.8678603 170.45082958 139.40370178 170.38768005 C139.64604553 171.32563416 139.88838928 172.26358826 140.13807678 173.22996521 C141.03987713 176.72812722 141.93216186 180.2286594 142.82167053 183.72996521 C143.20712015 185.24169084 143.5951076 186.75277184 143.98573303 188.26316833 C144.54850128 190.44102402 145.10194007 192.62107586 145.65370178 194.80174255 C145.91618713 195.80523239 145.91618713 195.80523239 146.18397522 196.82899475 C147.1669735 200.75820649 147.76162439 204.33942618 147.40370178 208.38768005 C144.54835192 211.24302991 142.59858925 210.6478123 138.59901428 210.66233826 C137.89967773 210.66744919 137.20034119 210.67256012 136.47981262 210.67782593 C134.16268921 210.69175316 131.84586213 210.69076304 129.52870178 210.6884613 C127.92209258 210.69234619 126.3154844 210.69668042 124.70887756 210.70144653 C121.33954032 210.70891523 117.97030786 210.70861256 114.60096741 210.70335388 C110.27622649 210.69755473 105.95191321 210.71449756 101.62724304 210.73769855 C98.30903095 210.7524057 94.99092262 210.75331181 91.67268372 210.75018883 C90.07782646 210.75070345 88.4829636 210.75596743 86.88813782 210.76600075 C84.66126928 210.77829156 82.43524359 210.7716191 80.20838928 210.75999451 C78.93979065 210.76062393 77.67119202 210.76125336 76.364151 210.76190186 C74.89872864 210.57666206 74.89872864 210.57666206 73.40370178 210.38768005 C70.63371525 206.23270026 71.5438502 203.07415587 72.40370178 198.38768005 C73.48960021 193.50646366 74.71562974 188.66650351 75.96620178 183.82518005 C76.29943595 182.51737784 76.63212242 181.20943595 76.96424866 179.90135193 C77.77204138 176.72871675 78.58531933 173.55759696 79.40370178 170.38768005 C78.30202667 170.3965625 77.20035156 170.40544495 76.06529236 170.41459656 C65.67762103 170.49572098 55.29001407 170.55566406 44.9020977 170.59492874 C39.56167766 170.61579386 34.22151358 170.64409217 28.88124084 170.68943787 C23.72652296 170.73293352 18.5720511 170.75682526 13.41716385 170.76718903 C11.45157626 170.77457368 9.48600197 170.78899425 7.52051926 170.81060028 C4.76497666 170.83968359 2.01044766 170.84363399 -0.745224 170.84178162 C-1.55586807 170.85616272 -2.36651215 170.87054382 -3.20172119 170.88536072 C-8.44730668 170.84726353 -11.49360322 169.94498719 -15.59629822 166.38768005 C-18.41840205 162.52195338 -18.97356382 159.80726083 -18.98397827 155.05627441 C-18.9938829 153.77912064 -19.00378754 152.50196686 -19.01399231 151.18611145 C-19.00975453 149.77812098 -19.0051967 148.37013145 -19.00035095 146.96214294 C-19.00605562 145.47361743 -19.01302025 143.98509629 -19.02114868 142.49658203 C-19.03908487 138.45935079 -19.03791087 134.42233683 -19.0322063 130.38507771 C-19.02911505 127.01278604 -19.03520619 123.64053614 -19.04124504 120.26825041 C-19.05529021 112.31168702 -19.05372911 104.35523101 -19.04234314 96.39866638 C-19.03086203 88.19439637 -19.04493736 79.99045326 -19.07173961 71.78622633 C-19.0939017 64.73808366 -19.10053285 57.69004357 -19.0946632 50.64186853 C-19.0912936 46.43417085 -19.09370876 42.2266827 -19.11091423 38.01901436 C-19.12638948 34.06180144 -19.12242179 30.10507248 -19.10360909 26.14787865 C-19.09992474 24.69748146 -19.10302725 23.24704836 -19.11349487 21.79668427 C-19.12671486 19.81318285 -19.11274295 17.82955627 -19.09750366 15.84606934 C-19.09729438 14.73719392 -19.09708509 13.6283185 -19.09686947 12.4858408 C-18.31823043 7.66664893 -16.10689685 4.68789857 -12.44606686 1.53691006 C-8.28561822 -0.14087962 -4.44710133 -0.02945516 0 0 Z " fill="#010101" transform="translate(18.596298217773438,22.612319946289063)"/>
<path d="M0 0 C0.93966362 -0.00467997 1.87932724 -0.00935994 2.84746552 -0.01418173 C6.00978021 -0.02618917 9.17166613 -0.016652 12.33398438 -0.00723267 C14.59554295 -0.01129581 16.85709954 -0.01663623 19.11865234 -0.02316284 C25.27142171 -0.03687281 31.42404065 -0.03152258 37.57681274 -0.02202559 C44.00563981 -0.01444804 50.4344537 -0.02146928 56.86328125 -0.02618408 C68.35312062 -0.03199747 79.84287643 -0.0226548 91.33270168 -0.00740607 C101.75503826 0.0059976 112.17727461 0.00366966 122.59960938 -0.01016235 C134.69639339 -0.02620904 146.79310167 -0.03219716 158.88990021 -0.02332556 C165.29568388 -0.01864033 171.70139846 -0.01804751 178.10717773 -0.02793503 C184.12850848 -0.03657937 190.14964931 -0.03062914 196.17095947 -0.01325226 C198.38535242 -0.00927385 200.59976125 -0.01044444 202.81414795 -0.01704025 C205.82813985 -0.02519238 208.84151645 -0.01501092 211.85546875 0 C213.18166859 -0.01003825 213.18166859 -0.01003825 214.53466034 -0.02027929 C220.47678033 0.03744629 220.47678033 0.03744629 222.65223408 1.69455183 C224.75357333 4.47283156 224.3178403 7.63077711 224.26831055 10.97348022 C224.26874863 11.74445038 224.26918671 12.51542053 224.26963806 13.30975342 C224.26754776 15.85848298 224.24420584 18.40655501 224.22070312 20.95516968 C224.21510802 22.72207785 224.21083752 24.48899067 224.20783997 26.25590515 C224.19638445 30.9068486 224.16691125 35.55751108 224.13372803 40.20834351 C224.10304234 44.95399169 224.08933784 49.69968526 224.07421875 54.44540405 C224.04204219 63.75737647 223.99083732 73.06914034 223.92773438 82.38095093 C223.3249617 82.37571411 222.72218903 82.37047729 222.10115051 82.36508179 C215.82260996 82.31836519 209.54589952 82.3274173 203.26733398 82.3687439 C200.92489193 82.37685092 198.58235586 82.37077497 196.23999023 82.35018921 C192.87032882 82.32304333 189.50429772 82.34703373 186.13476562 82.38095093 C185.08875687 82.36153442 184.04274811 82.34211792 182.96504211 82.32211304 C177.59713837 82.30322123 177.59713837 82.30322123 173.26400757 85.05282593 C171.99018215 87.11013721 170.96321429 89.19612313 169.92773438 91.38095093 C168.62468182 93.07139749 167.30413062 94.74966649 165.92773438 96.38095093 C159.35642884 82.34734248 152.83938599 68.29481633 146.55273438 54.13095093 C145.80576294 52.45404175 145.80576294 52.45404175 145.04370117 50.74325562 C142.90301019 45.91979025 140.79007708 41.09243113 138.79882812 36.20516968 C138.48671387 35.45074585 138.17459961 34.69632202 137.85302734 33.91903687 C137.06247645 31.99433401 136.29285985 30.06106712 135.52539062 28.12704468 C134.14296125 25.18842826 134.14296125 25.18842826 131.23632812 23.97860718 C130.09357422 23.68276733 130.09357422 23.68276733 128.92773438 23.38095093 C125.77514102 26.25990222 123.90554469 28.95939725 122.04492188 32.79110718 C121.26048706 34.38704712 121.26048706 34.38704712 120.46020508 36.01522827 C119.91323975 37.14654175 119.36627441 38.27785522 118.80273438 39.44345093 C117.64943226 41.79191612 116.49446857 44.13956604 115.33789062 46.48641968 C114.76570801 47.64963745 114.19352539 48.81285522 113.60400391 50.01132202 C110.15664295 56.94119035 106.51404805 63.76926424 102.86645508 70.5953064 C101.85950418 72.51073913 100.88949202 74.44248742 99.92773438 76.38095093 C99.26773438 76.38095093 98.60773438 76.38095093 97.92773438 76.38095093 C96.10076071 74.2285849 94.37966331 72.06635639 92.67773438 69.81845093 C91.68100538 68.53277743 90.68361587 67.24761572 89.68554688 65.96298218 C88.1291276 63.94635396 86.5820501 61.92410262 85.04492188 59.89266968 C82.40491535 56.42883207 82.40491535 56.42883207 78.47558594 54.94760132 C75.81488701 55.14574395 75.81488701 55.14574395 74.14550781 57.17953491 C73.61473633 58.00783813 73.08396484 58.83614136 72.53710938 59.68954468 C71.94220703 60.60332886 71.34730469 61.51711304 70.734375 62.45858765 C70.13818359 63.42296753 69.54199219 64.38734741 68.92773438 65.38095093 C68.35732422 66.2976355 67.78691406 67.21432007 67.19921875 68.15878296 C64.92608498 71.86016312 62.68941179 75.58226389 60.47070312 79.3164978 C59.65279297 80.66517944 59.65279297 80.66517944 58.81835938 82.04110718 C58.33399414 82.85200806 57.84962891 83.66290894 57.35058594 84.49838257 C55.92773438 86.38095093 55.92773438 86.38095093 52.92773438 87.38095093 C52.39259216 86.73221008 51.85744995 86.08346924 51.30609131 85.41506958 C48.30046794 82.84447369 46.78846469 82.86740324 42.87402344 82.83505249 C41.65305969 82.81533386 40.43209595 82.79561523 39.1741333 82.77529907 C37.86047791 82.77407043 36.54682251 82.7728418 35.19335938 82.77157593 C33.83142125 82.756591 32.46950128 82.73986318 31.10760498 82.72146606 C27.53032589 82.67781422 23.95329191 82.6577987 20.37579346 82.64273071 C16.72238687 82.62315146 13.0692447 82.58118251 9.41601562 82.54110718 C2.25332633 82.46582885 -4.90925191 82.41552349 -12.07226562 82.38095093 C-12.14171596 72.13248596 -12.19505159 61.8840768 -12.22770214 51.63542461 C-12.24337123 46.87676887 -12.26463212 42.1182739 -12.29858398 37.35971069 C-12.3311332 32.76911141 -12.34910927 28.17866695 -12.35689735 23.5879612 C-12.36244886 21.83482233 -12.37328938 20.08169212 -12.3894558 18.328619 C-12.41117137 15.87671847 -12.41423506 13.42546114 -12.4128418 10.97348022 C-12.42362762 10.24555771 -12.43441345 9.51763519 -12.44552612 8.76765442 C-12.41510733 3.83423811 -12.41510733 3.83423811 -10.79676533 1.69455183 C-7.70460985 -0.66083171 -3.73906682 -0.02830168 0 0 Z " fill="#EEEEEE" transform="translate(22.072265625,32.619049072265625)"/>
<path d="M0 0 C3.25015926 3.7984326 5.04560389 8.17756647 7.0625 12.69921875 C7.45053802 13.55925003 7.83857605 14.41928131 8.2383728 15.30537415 C9.06764453 17.14552043 9.89459095 18.98671609 10.71942139 20.82885742 C12.00341714 23.6951281 13.29510346 26.55782777 14.58837891 29.41992188 C18.30988998 37.67116561 22.0054927 45.92917517 25.5234375 54.26953125 C26.01714844 55.43073486 26.51085937 56.59193848 27.01953125 57.78833008 C27.89980404 59.87406288 28.76529509 61.96611885 29.61328125 64.06518555 C29.99613281 64.97179932 30.37898437 65.87841309 30.7734375 66.8125 C31.08716309 67.58207031 31.40088867 68.35164063 31.72412109 69.14453125 C33.42482671 71.61781152 35.18884055 72.12089491 38 73 C43.70123643 67.65827013 43.70123643 67.65827013 51 53 C65.52 53 80.04 53 95 53 C95 65.54 95 78.08 95 91 C17.12 91 -60.76 91 -141 91 C-141 78.46 -141 65.92 -141 53 C-133.71065603 52.83178437 -126.42841061 52.67162507 -119.1388092 52.58599854 C-115.74386866 52.54389779 -112.35054823 52.48773931 -108.95654297 52.39648438 C-105.05392871 52.29909804 -101.15361036 52.2539911 -97.25 52.21875 C-96.04448486 52.17745972 -94.83896973 52.13616943 -93.59692383 52.09362793 C-85.16385732 52.08916032 -85.16385732 52.08916032 -81.61132812 54.86938477 C-80.27836684 56.31694668 -78.97127053 57.78896406 -77.69732666 59.28872681 C-76.01656622 61.33836807 -76.01656622 61.33836807 -72.76464844 61.38232422 C-69.18232819 59.5911641 -67.6610934 57.26968012 -65.765625 53.8828125 C-65.40152527 53.26985321 -65.03742554 52.65689392 -64.66229248 52.02536011 C-63.50581316 50.06904737 -62.37776115 48.09798035 -61.25 46.125 C-60.47711103 44.80490434 -59.70238977 43.48587963 -58.92578125 42.16796875 C-57.50304838 39.75015214 -56.09236512 37.32607048 -54.69238281 34.89501953 C-53.52221808 32.89331535 -52.2861517 30.92922755 -51 29 C-46.47535107 30.56868725 -44.26941385 34.1337827 -41.5 37.8125 C-40.09369681 39.64605879 -38.68730082 41.47939105 -37.2734375 43.30712891 C-36.13883607 44.81543533 -35.07915497 46.37944047 -34.03125 47.94921875 C-32.09593164 50.34057425 -32.09593164 50.34057425 -28.75 50.3125 C-27.38875 50.1578125 -27.38875 50.1578125 -26 50 C-16.82920053 33.5730155 -8.3148727 16.87080996 0 0 Z " fill="#EFEFEF" transform="translate(151,72)"/>
<path d="M0 0 C77.88 0 155.76 0 236 0 C236 7 236 7 234.74704742 8.91390479 C231.51493107 10.92322981 227.62320009 10.40892258 223.92773438 10.38095093 C222.98807076 10.3856309 222.04840714 10.39031087 221.08026886 10.39513266 C217.91795417 10.4071401 214.75606824 10.39760293 211.59375 10.38818359 C209.33219143 10.39224674 207.07063484 10.39758716 204.80908203 10.40411377 C198.65631267 10.41782373 192.50369372 10.41247351 186.35092163 10.40297651 C179.92209457 10.39539897 173.49328067 10.40242021 167.06445312 10.40713501 C155.57461375 10.41294839 144.08485794 10.40360573 132.59503269 10.388357 C122.17269611 10.37495332 111.75045977 10.37728127 101.328125 10.39111328 C89.23134098 10.40715997 77.13463271 10.41314809 65.03783417 10.40427649 C58.6320505 10.39959126 52.22633591 10.39899844 45.82055664 10.40888596 C39.79922589 10.41753029 33.77808506 10.41158007 27.7567749 10.39420319 C25.54238196 10.39022478 23.32797312 10.39139537 21.11358643 10.39799118 C18.09959452 10.4061433 15.08621792 10.39596184 12.07226562 10.38095093 C11.1881324 10.38764309 10.30399918 10.39433526 9.39307404 10.40123022 C3.55415997 10.34450724 3.55415997 10.34450724 1.25295258 8.91390479 C0 7 0 7 0 0 Z " fill="#65E1E6" transform="translate(10,173)"/>
<path d="M0 0 C12.54 0 25.08 0 38 0 C39.155 4.393125 40.31 8.78625 41.5 13.3125 C41.86544922 14.69477783 42.23089844 16.07705566 42.60742188 17.5012207 C42.89166016 18.59007568 43.17589844 19.67893066 43.46875 20.80078125 C43.76201172 21.91622314 44.05527344 23.03166504 44.35742188 24.1809082 C45 27 45 27 45 30 C27.84 30 10.68 30 -7 30 C-5.68886535 22.78875943 -4.291334 15.85029067 -2.375 8.8125 C-1.59125 5.904375 -0.8075 2.99625 0 0 Z " fill="#00A0B9" transform="translate(109,193)"/>
<path d="M0 0 C1.2219104 0.00607269 1.2219104 0.00607269 2.46850586 0.01226807 C3.30438232 0.01035461 4.14025879 0.00844116 5.00146484 0.00646973 C6.77010397 0.00510771 8.53875309 0.0088053 10.30737305 0.01715088 C13.02016579 0.02785031 15.7322963 0.01725631 18.44506836 0.00445557 C20.16121566 0.00577716 21.87736255 0.00833955 23.59350586 0.01226807 C24.40811279 0.0082196 25.22271973 0.00417114 26.06201172 0 C31.80108658 0.04797379 31.80108658 0.04797379 34.03100586 2.27789307 C34.28100586 4.77789307 34.28100586 4.77789307 34.03100586 7.27789307 C31.42794694 9.88095198 29.60822047 9.52614284 26.06201172 9.55578613 C25.24740479 9.55173767 24.43279785 9.54768921 23.59350586 9.54351807 C22.75762939 9.54543152 21.92175293 9.54734497 21.06054688 9.54931641 C19.29190775 9.55067842 17.52325863 9.54698083 15.75463867 9.53863525 C13.04184592 9.52793582 10.32971542 9.53852983 7.61694336 9.55133057 C5.90079606 9.55000897 4.18464917 9.54744659 2.46850586 9.54351807 C1.24659546 9.54959076 1.24659546 9.54959076 0 9.55578613 C-5.73907486 9.50781235 -5.73907486 9.50781235 -7.96899414 7.27789307 C-8.21899414 4.77789307 -8.21899414 4.77789307 -7.96899414 2.27789307 C-5.36593522 -0.32516585 -3.54620875 0.02964329 0 0 Z " fill="#000000" transform="translate(25.968994140625,40.72210693359375)"/>
<path d="M0 0 C2 2 2 2 2.25 4.5 C2 7 2 7 0 9 C-3.625 8.625 -3.625 8.625 -7 8 C-7.6875 5.6875 -7.6875 5.6875 -8 3 C-5.93469402 -0.32743741 -3.72952011 -0.4781436 0 0 Z " fill="#080808" transform="translate(73,41)"/>
</svg>
